<svg width="122" height="205" viewBox="0 0 122 205" fill="none" xmlns="http://www.w3.org/2000/svg">
<g clip-path="url(#clip0_39_6)">
<path d="M0.434324 205C0.173746 205 0.043457 204.87 0.043457 204.609V186.88C0.043457 186.619 0.173746 186.489 0.434324 186.489H11.8253C14.1084 186.489 15.7091 187.016 16.6274 188.089C17.5456 189.161 18.0171 190.947 18.0171 193.439V198.162C18.0171 200.654 17.5456 202.409 16.6274 203.456C15.7091 204.479 14.1084 205.006 11.8253 205.006H0.434324V205ZM1.69378 203.376H11.7198C13.5066 203.376 14.7103 203.01 15.3679 202.303C16.0256 201.572 16.3668 200.177 16.3668 198.162V193.439C16.3668 191.368 16.0256 189.979 15.3679 189.242C14.7103 188.479 13.5066 188.113 11.7198 188.113H1.69378V203.376Z" fill="white"/>
<path d="M25.8468 205C25.5862 205 25.4559 204.87 25.4559 204.609V186.88C25.4559 186.619 25.5862 186.489 25.8468 186.489H40.7308C40.9913 186.489 41.1216 186.619 41.1216 186.88V187.717C41.1216 187.977 40.9913 188.107 40.7308 188.107H27.1125V194.691H36.7166C36.9772 194.691 37.1075 194.821 37.1075 195.081V195.893C37.1075 196.154 36.9772 196.284 36.7166 196.284H27.1125V203.363H40.7308C40.9913 203.363 41.1216 203.494 41.1216 203.754V204.591C41.1216 204.851 40.9913 204.981 40.7308 204.981H25.8468V205Z" fill="white"/>
<path d="M53.3813 205C48.8646 205 47.1584 202.954 47.1584 198.627V192.887C47.1584 188.51 48.8646 186.489 53.3813 186.489H59.2319C63.7486 186.489 65.4547 188.51 65.4547 192.887V193.228C65.4547 193.488 65.3244 193.618 65.0639 193.618H64.1953C63.9347 193.618 63.8044 193.488 63.8044 193.228V192.862C63.8044 191.077 63.4632 189.849 62.7807 189.167C62.1231 188.461 60.9442 188.12 59.2381 188.12H53.3875C51.6813 188.12 50.5025 188.461 49.8201 189.167C49.1624 189.849 48.8212 191.083 48.8212 192.862V198.658C48.8212 200.413 49.1624 201.646 49.8201 202.353C50.5025 203.035 51.6813 203.376 53.3875 203.376H59.2381C60.9442 203.376 62.1231 203.035 62.7807 202.353C63.4632 201.646 63.8044 200.413 63.8044 198.658V198.001C63.8044 197.741 63.9347 197.611 64.1953 197.611H65.0639C65.3244 197.611 65.4547 197.741 65.4547 198.001V198.627C65.4547 202.954 63.7486 205 59.2319 205H53.3813Z" fill="white"/>
<path d="M73.0115 205C72.7509 205 72.6206 204.87 72.6206 204.609V186.88C72.6206 186.619 72.7509 186.489 73.0115 186.489H73.8801C74.1406 186.489 74.2709 186.619 74.2709 186.88V204.609C74.2709 204.87 74.1406 205 73.8801 205H73.0115Z" fill="white"/>
<path d="M88.553 205C88.2925 205 88.1622 204.87 88.1622 204.609V188.114H81.232C80.9715 188.114 80.8412 187.983 80.8412 187.723V186.886C80.8412 186.626 80.9715 186.496 81.232 186.496H96.7426C97.0032 186.496 97.1335 186.626 97.1335 186.886V187.723C97.1335 187.983 97.0032 188.114 96.7426 188.114H89.8373V204.609C89.8373 204.87 89.707 205 89.4465 205H88.553Z" fill="white"/>
<path d="M111.546 205C111.285 205 111.155 204.87 111.155 204.609V199.997L101.942 186.967C101.756 186.675 101.861 186.496 102.178 186.496H103.251C103.487 186.496 103.642 186.576 103.747 186.731L111.986 198.373L120.071 186.731C120.176 186.576 120.331 186.496 120.567 186.496H121.615C121.957 186.496 122.037 186.651 121.851 186.967L112.824 199.973V204.616C112.824 204.876 112.694 205.006 112.433 205.006H111.54L111.546 205Z" fill="white"/>
<path fill-rule="evenodd" clip-rule="evenodd" d="M122 96.5209V56.121L112.613 49.4941V119.173L122 109.787V96.5209ZM0 80.8308V107.487L9.387 116.873V74.8548L0 80.8308ZM60.5347 167.972L34.7003 142.153V82.1327L17.589 89.3361V59.0284L42.0833 45.6196V87.34L60.5409 97.9281V167.966L60.5347 167.972ZM77.0317 43.7227V154.719L67.6385 164.104V0L89.9862 16.8989V34.3433L77.0255 43.7227H77.0317ZM103.22 42.8734V128.546L93.8266 137.931V36.2403L103.22 42.8672V42.8734Z" fill="url(#paint0_linear_39_6)"/>
</g>
<defs>
<linearGradient id="paint0_linear_39_6" x1="61" y1="167.972" x2="61" y2="0" gradientUnits="userSpaceOnUse">
<stop stop-color="#0290F1"/>
<stop offset="0.03" stop-color="#0197EA"/>
<stop offset="0.18" stop-color="#01B3D4"/>
<stop offset="0.33" stop-color="#01C8C3"/>
<stop offset="0.51" stop-color="#01D8B7"/>
<stop offset="0.71" stop-color="#01E1B0"/>
<stop offset="1" stop-color="#01E4AE"/>
</linearGradient>
<clipPath id="clip0_39_6">
<rect width="122" height="205" fill="white"/>
</clipPath>
</defs>
</svg>
